<svg xmlns="http://www.w3.org/2000/svg" xmlns:xlink="http://www.w3.org/1999/xlink" width="500" zoomAndPan="magnify" viewBox="0 0 375 374.999991" height="500" preserveAspectRatio="xMidYMid meet" version="1.2"><defs/><g id="b281554724"><rect x="0" width="375" y="0" height="374.999991" style="fill:#ffffff;fill-opacity:1;stroke:none;"/><rect x="0" width="375" y="0" height="374.999991" style="fill:#000000;fill-opacity:1;stroke:none;"/><g style="fill:#47a1da;fill-opacity:1;"><g transform="translate(43.47742, 208.124986)"><path style="stroke:none" d="M 5.625 0 L 5.625 -46.6875 L 14.375 -46.6875 L 14.375 0 Z M 5.625 0 "/></g></g><g style="fill:#47a1da;fill-opacity:1;"><g transform="translate(63.406893, 208.124986)"><path style="stroke:none" d="M 22.046875 0.65625 C 19.535156 0.65625 17.128906 0.457031 14.828125 0.0625 C 12.535156 -0.332031 10.425781 -0.90625 8.5 -1.65625 C 6.582031 -2.40625 4.894531 -3.3125 3.4375 -4.375 L 6.15625 -11.328125 C 7.613281 -10.304688 9.179688 -9.453125 10.859375 -8.765625 C 12.535156 -8.085938 14.3125 -7.582031 16.1875 -7.25 C 18.0625 -6.914062 20.015625 -6.75 22.046875 -6.75 C 25.398438 -6.75 27.882812 -7.3125 29.5 -8.4375 C 31.113281 -9.5625 31.921875 -11.097656 31.921875 -13.046875 C 31.921875 -14.109375 31.675781 -14.976562 31.1875 -15.65625 C 30.695312 -16.34375 29.890625 -16.925781 28.765625 -17.40625 C 27.640625 -17.894531 26.175781 -18.316406 24.375 -18.671875 L 16.890625 -20.125 C 12.609375 -20.96875 9.453125 -22.476562 7.421875 -24.65625 C 5.390625 -26.84375 4.375 -29.660156 4.375 -33.109375 C 4.375 -35.972656 5.164062 -38.476562 6.75 -40.625 C 8.34375 -42.769531 10.539062 -44.425781 13.34375 -45.59375 C 16.144531 -46.757812 19.378906 -47.34375 23.046875 -47.34375 C 25.203125 -47.34375 27.273438 -47.144531 29.265625 -46.75 C 31.253906 -46.351562 33.085938 -45.753906 34.765625 -44.953125 C 36.441406 -44.160156 37.921875 -43.210938 39.203125 -42.109375 L 36.421875 -35.359375 C 34.566406 -36.953125 32.523438 -38.113281 30.296875 -38.84375 C 28.066406 -39.570312 25.628906 -39.9375 22.984375 -39.9375 C 20.953125 -39.9375 19.195312 -39.671875 17.71875 -39.140625 C 16.238281 -38.609375 15.085938 -37.84375 14.265625 -36.84375 C 13.453125 -35.851562 13.046875 -34.675781 13.046875 -33.3125 C 13.046875 -31.71875 13.5625 -30.476562 14.59375 -29.59375 C 15.632812 -28.71875 17.457031 -28.015625 20.0625 -27.484375 L 27.484375 -26.03125 C 31.898438 -25.144531 35.1875 -23.6875 37.34375 -21.65625 C 39.507812 -19.625 40.59375 -16.929688 40.59375 -13.578125 C 40.59375 -10.753906 39.828125 -8.269531 38.296875 -6.125 C 36.773438 -3.976562 34.625 -2.3125 31.84375 -1.125 C 29.0625 0.0625 25.796875 0.65625 22.046875 0.65625 Z M 22.046875 0.65625 "/></g></g><g style="fill:#47a1da;fill-opacity:1;"><g transform="translate(106.708792, 208.124986)"><path style="stroke:none" d="M 5.625 0 L 5.625 -46.6875 L 14.375 -46.6875 L 14.375 0 Z M 5.625 0 "/></g></g><g style="fill:#47a1da;fill-opacity:1;"><g transform="translate(126.638265, 208.124986)"><path style="stroke:none" d="M 5.625 0 L 5.625 -46.6875 L 14.375 -46.6875 L 14.375 -26.15625 L 14.5625 -26.15625 L 34.890625 -46.6875 L 45.5 -46.6875 L 20.859375 -22.046875 L 21.25 -26.21875 L 46.8125 0 L 35.828125 0 L 14.5625 -21.515625 L 14.375 -21.515625 L 14.375 0 Z M 5.625 0 "/></g></g><g style="fill:#f0e523;fill-opacity:1;"><g transform="translate(172.090525, 207.474992)"><path style="stroke:none" d="M 27.21875 0.65625 C 22.445312 0.65625 18.328125 -0.3125 14.859375 -2.25 C 11.398438 -4.195312 8.734375 -6.96875 6.859375 -10.5625 C 4.984375 -14.15625 4.046875 -18.425781 4.046875 -23.375 C 4.046875 -28.320312 4.984375 -32.582031 6.859375 -36.15625 C 8.734375 -39.726562 11.390625 -42.484375 14.828125 -44.421875 C 18.273438 -46.367188 22.40625 -47.34375 27.21875 -47.34375 C 30.394531 -47.34375 33.363281 -46.878906 36.125 -45.953125 C 38.882812 -45.023438 41.191406 -43.65625 43.046875 -41.84375 L 40.125 -34.96875 C 38.144531 -36.644531 36.140625 -37.847656 34.109375 -38.578125 C 32.078125 -39.304688 29.867188 -39.671875 27.484375 -39.671875 C 22.929688 -39.671875 19.40625 -38.265625 16.90625 -35.453125 C 14.414062 -32.648438 13.171875 -28.625 13.171875 -23.375 C 13.171875 -18.125 14.40625 -14.082031 16.875 -11.25 C 19.351562 -8.425781 22.890625 -7.015625 27.484375 -7.015625 C 29.867188 -7.015625 32.078125 -7.378906 34.109375 -8.109375 C 36.140625 -8.835938 38.144531 -10.039062 40.125 -11.71875 L 43.046875 -4.828125 C 41.191406 -3.066406 38.882812 -1.710938 36.125 -0.765625 C 33.363281 0.179688 30.394531 0.65625 27.21875 0.65625 Z M 27.21875 0.65625 "/></g></g><g style="fill:#f0e523;fill-opacity:1;"><g transform="translate(218.107078, 207.474992)"><path style="stroke:none" d="M 26.6875 0.65625 C 23.238281 0.65625 20.125 0.09375 17.34375 -1.03125 C 14.5625 -2.15625 12.175781 -3.765625 10.1875 -5.859375 C 8.207031 -7.953125 6.6875 -10.476562 5.625 -13.4375 C 4.570312 -16.394531 4.046875 -19.707031 4.046875 -23.375 C 4.046875 -27.039062 4.570312 -30.335938 5.625 -33.265625 C 6.6875 -36.203125 8.207031 -38.71875 10.1875 -40.8125 C 12.175781 -42.914062 14.5625 -44.53125 17.34375 -45.65625 C 20.125 -46.78125 23.238281 -47.34375 26.6875 -47.34375 C 30.082031 -47.34375 33.171875 -46.78125 35.953125 -45.65625 C 38.734375 -44.53125 41.117188 -42.929688 43.109375 -40.859375 C 45.097656 -38.785156 46.617188 -36.28125 47.671875 -33.34375 C 48.734375 -30.40625 49.265625 -27.101562 49.265625 -23.4375 C 49.265625 -19.769531 48.734375 -16.457031 47.671875 -13.5 C 46.617188 -10.550781 45.097656 -8.015625 43.109375 -5.890625 C 41.117188 -3.773438 38.734375 -2.15625 35.953125 -1.03125 C 33.171875 0.09375 30.082031 0.65625 26.6875 0.65625 Z M 26.6875 -6.890625 C 29.550781 -6.890625 31.988281 -7.53125 34 -8.8125 C 36.007812 -10.09375 37.554688 -11.96875 38.640625 -14.4375 C 39.722656 -16.90625 40.265625 -19.882812 40.265625 -23.375 C 40.265625 -26.90625 39.734375 -29.894531 38.671875 -32.34375 C 37.609375 -34.789062 36.0625 -36.644531 34.03125 -37.90625 C 32 -39.164062 29.550781 -39.796875 26.6875 -39.796875 C 23.8125 -39.796875 21.359375 -39.164062 19.328125 -37.90625 C 17.304688 -36.644531 15.753906 -34.789062 14.671875 -32.34375 C 13.585938 -29.894531 13.046875 -26.90625 13.046875 -23.375 C 13.046875 -19.882812 13.585938 -16.90625 14.671875 -14.4375 C 15.753906 -11.96875 17.304688 -10.09375 19.328125 -8.8125 C 21.359375 -7.53125 23.8125 -6.890625 26.6875 -6.890625 Z M 26.6875 -6.890625 "/></g></g><g style="fill:#f0e523;fill-opacity:1;"><g transform="translate(271.406822, 207.474992)"><path style="stroke:none" d="M 5.765625 0 L 5.765625 -46.6875 L 14.109375 -46.6875 L 30.453125 -15.421875 L 29.203125 -15.421875 L 45.5625 -46.6875 L 53.765625 -46.6875 L 53.765625 0 L 45.625 0 L 45.625 -33.703125 L 46.484375 -33.703125 L 32.515625 -7.28125 L 27.015625 -7.28125 L 12.90625 -33.765625 L 13.84375 -33.765625 L 13.84375 0 Z M 5.765625 0 "/></g></g></g></svg>